<svg xmlns="http://www.w3.org/2000/svg" width="100" height="100" viewBox="0 0 100 100"><path fill="#fff" d="M73.885 67.882c-.561 0-1.107-.23-1.5-.657l-10.343-11.219-10.681 10.916c-.384.392-.908.612-1.455.613h-.004c-.546 0-1.068-.22-1.453-.608l-10.808-10.973-10.389 11.271c-.558.604-1.424.814-2.197.534-.773-.281-1.301-.999-1.34-1.82l-1.224-26.106c-.04-.844.445-1.625 1.22-1.963s1.677-.165 2.271.437l11.562 11.737 10.775-11.688c.387-.419.93-.657 1.5-.657.569 0 1.113.238 1.5.657l10.811 11.727 11.52-11.772c.592-.605 1.498-.781 2.271-.443.775.338 1.263 1.12 1.223 1.965l-1.224 26.106c-.038.821-.566 1.539-1.34 1.82-.226.083-.463.123-.695.123zm-33.476-14.93l9.489 9.632 9.376-9.581-9.456-10.257-9.409 10.206zm-13.594-7.988l.746 15.907 7.215-7.826-7.961-8.081zm38.083 8.122l7.177 7.785.745-15.88-7.922 8.095zM73.885 67.882h-48.133c-1.126 0-2.04-.913-2.04-2.04 0-1.126.913-2.039 2.04-2.039h48.132c1.125 0 2.039.913 2.039 2.039.001 1.127-.913 2.04-2.038 2.04zM50.876 34.245c-.476.476-1.255.476-1.73 0l-1.478-1.478c-.476-.476-.476-1.254 0-1.73l1.478-1.477c.476-.476 1.255-.476 1.73 0l1.478 1.477c.476.476.476 1.255 0 1.73l-1.478 1.478zM76.165 34.245c-.476.476-1.254.476-1.73 0l-1.478-1.478c-.476-.476-.476-1.254 0-1.73l1.478-1.477c.477-.476 1.255-.476 1.73 0l1.479 1.477c.476.476.476 1.255 0 1.73l-1.479 1.478zM24.386 35.23c-.476.476-1.255.476-1.73 0l-1.478-1.477c-.476-.476-.476-1.255 0-1.73l1.478-1.477c.476-.477 1.254-.477 1.73 0l1.477 1.478c.476.476.476 1.254 0 1.73l-1.477 1.476zM73.885 74h-47.317c-1.126 0-2.04-.913-2.04-2.039 0-1.127.913-2.04 2.04-2.04h47.316c1.125 0 2.039.913 2.039 2.04.001 1.126-.913 2.039-2.038 2.039z"/></svg>